<?xml version="1.0" encoding="UTF-8"?>
<!DOCTYPE svg PUBLIC "-//W3C//DTD SVG 1.1//EN" "http://www.w3.org/Graphics/SVG/1.1/DTD/svg11.dtd">
<!-- Creator: CorelDRAW 2020 (64 Bit) -->
<svg xmlns="http://www.w3.org/2000/svg" xml:space="preserve" width="110mm" height="100mm" version="1.1" style="shape-rendering:geometricPrecision; text-rendering:geometricPrecision; image-rendering:optimizeQuality; fill-rule:evenodd; clip-rule:evenodd"
viewBox="0 0 11000 10000"
 xmlns:xlink="http://www.w3.org/1999/xlink"
 xmlns:xodm="http://www.corel.com/coreldraw/odm/2003">
 <defs>
  <style type="text/css">
   <![CDATA[
    .fil0 {fill:#221C35;fill-rule:nonzero}
    .fil1 {fill:#97D700;fill-rule:nonzero}
    .fil2 {fill:#8FD400;fill-rule:nonzero}
   ]]>
  </style>
 </defs>
 <g id="Camada_x0020_1">
  <metadata id="CorelCorpID_0Corel-Layer"/>
  <g id="_2357843672288">
   <path class="fil0" d="M4461.9 3826.85c-250.52,39.14 -435.22,254.92 -435.22,508.5l0 692.58c0,15.89 12.88,28.79 28.8,28.79l231.11 0c15.91,0 28.8,-12.9 28.8,-28.79l0 -692.58c0,-111.33 81.08,-206.08 191.08,-223.26l170.28 -26.59c14.02,-2.19 24.35,-14.27 24.35,-28.45l0 -233.91c0,-17.69 -15.77,-31.19 -33.24,-28.45l-205.96 32.16z"/>
   <path class="fil0" d="M2619.56 5056.72l231.12 0c15.91,0 28.8,-12.9 28.8,-28.8l0 -1181.16c0,-15.89 -12.89,-28.8 -28.8,-28.8l-231.12 0c-15.89,0 -28.8,12.91 -28.8,28.8l0 1181.16c0,15.9 12.91,28.8 28.8,28.8z"/>
   <path class="fil0" d="M5758.37 4503.42c0,154.33 -128.49,279.2 -284.08,273.29 -147.95,-5.65 -262.86,-131.95 -262.86,-280.03l0 -650.23c0,-15.91 -12.89,-28.8 -28.8,-28.8l-231.11 0c-15.9,0 -28.8,12.89 -28.8,28.8l0 646.41c0,307 241.72,565.33 548.64,572.6 316.16,7.49 575.72,-247.56 575.72,-562.04l0 -656.97c0,-15.91 -12.9,-28.8 -28.8,-28.8l-231.11 0c-15.9,0 -28.8,12.89 -28.8,28.8l0 656.97z"/>
   <path class="fil0" d="M3414.76 4420.13l0 -313.78 327.96 0c15.9,0 28.8,-12.88 28.8,-28.79l0 -231.12c0,-15.91 -12.9,-28.8 -28.8,-28.8l-327.96 0 0 -259.58c0,-15.91 -12.91,-28.8 -28.81,-28.8l-231.11 0c-15.91,0 -28.8,12.89 -28.8,28.8l0 862.07c0,345.69 273.12,628.77 614.91,644.78 16.57,0.78 30.57,-12.23 30.57,-28.82l0 -231.57c0,-15.05 -11.64,-27.49 -26.64,-28.6 -184.33,-13.68 -330.12,-168.04 -330.12,-355.79z"/>
   <path class="fil0" d="M6989.22 4292.85l-352.56 0c-47.36,0 -89.64,-33.94 -95.7,-80.93 -7.33,-56.85 36.96,-105.56 92.44,-105.56l605.87 0c15.91,0 28.8,-12.89 28.8,-28.8l0 -231.12c0,-15.89 -12.89,-28.79 -28.8,-28.79l-597.74 0c-207.83,0 -383.74,162.64 -389.92,370.4 -6.39,215.86 167.34,393.51 381.79,393.51l352.61 0c47.36,0 89.62,33.94 95.65,80.9 7.34,56.85 -36.94,105.54 -92.44,105.54l-647.1 0c-15.9,0 -28.8,12.89 -28.8,28.8l0 231.12c0,15.91 12.9,28.8 28.8,28.8l638.97 0c207.81,0 383.72,-162.62 389.92,-370.33 6.44,-215.85 -167.31,-393.54 -381.79,-393.54z"/>
   <path class="fil0" d="M2068.63 3817.65l-627.98 0c-15.91,0 -28.8,12.9 -28.8,28.8l0 231.11c0,15.91 12.89,28.8 28.8,28.8l543.77 0 -573.23 505.16c-82.01,72.26 -108.78,185.98 -67.05,287.68 39.77,96.87 137.26,157.52 241.97,157.52l627.95 0c15.92,0 28.8,-12.89 28.8,-28.8l0 -231.12c0,-15.91 -12.88,-28.79 -28.8,-28.79l-543.77 0 573.24 -505.17c81.97,-72.25 108.76,-185.89 67.07,-287.59 -39.73,-96.91 -137.23,-157.6 -241.97,-157.6z"/>
   <path class="fil0" d="M512.62 3198.27c0,-134.83 -105.28,-245.05 -238.1,-253 -8.31,-0.49 -15.36,6.08 -15.36,14.4l0 477.2c0,8.32 7.05,14.89 15.36,14.4 132.82,-7.94 238.1,-118.18 238.1,-253z"/>
   <path class="fil1" d="M1156.88 3198.27c0,134.83 105.27,245.06 238.1,253 8.3,0.49 15.36,-6.09 15.36,-14.4l0 -477.2c0,-8.32 -7.06,-14.89 -15.36,-14.4 -132.83,7.94 -238.1,118.18 -238.1,253z"/>
   <path class="fil1" d="M673.68 3477.24c-116.75,-67.4 -264.87,-31.36 -338.15,79.7 -4.58,6.94 -2.41,16.35 4.78,20.49l413.28 238.6c7.21,4.17 16.43,1.34 20.14,-6.09 59.54,-119.01 16.72,-265.28 -100.05,-332.7z"/>
   <path class="fil1" d="M995.81 2919.3c116.75,67.41 264.86,31.36 338.14,-79.7 4.6,-6.94 2.42,-16.34 -4.78,-20.49l-413.26 -238.62c-7.2,-4.15 -16.43,-1.34 -20.15,6.11 -59.54,118.99 -16.7,265.28 100.05,332.7z"/>
   <path class="fil1" d="M995.81 3477.24c-116.75,67.42 -159.59,213.69 -100.05,332.7 3.72,7.43 12.95,10.26 20.15,6.09l413.26 -238.6c7.2,-4.14 9.38,-13.55 4.78,-20.49 -73.28,-111.06 -221.39,-147.1 -338.14,-79.7z"/>
   <path class="fil1" d="M673.68 2919.3c116.77,-67.41 159.59,-213.69 100.05,-332.69 -3.71,-7.45 -12.93,-10.27 -20.14,-6.11l-413.28 238.6c-7.19,4.17 -9.36,13.56 -4.78,20.49 73.28,111.07 221.4,147.13 338.15,79.71z"/>
   <polygon class="fil0" points="1678.95,5648.82 1477.56,5648.82 1477.56,5477.61 1411.7,5477.61 1411.7,5878.21 1477.56,5878.21 1477.56,5707.54 1678.95,5707.54 1678.95,5878.21 1744.81,5878.21 1744.81,5477.61 1678.95,5477.61 "/>
   <polygon class="fil0" points="2027.41,5703.15 2188.75,5703.15 2188.75,5646.07 2027.41,5646.07 2027.41,5534.67 2199.17,5534.67 2199.17,5477.61 2027.41,5477.61 2016.44,5477.61 1962.11,5477.61 1962.11,5878.2 2016.44,5878.2 2027.41,5878.2 2204.11,5878.2 2204.11,5821.12 2027.41,5821.12 "/>
   <path class="fil0" d="M2483.34 5708.08l59.95 -173.95 19.81 0 61.82 173.95 -141.58 0zm16 -230.48l-140.48 400.6 65.85 0 38.96 -113.04 181.54 0 40.17 113.04 68.04 0 -144.87 -400.6 -109.21 0z"/>
   <polygon class="fil0" points="2995.43,5477.6 2929.58,5477.6 2929.58,5878.2 2984.45,5878.2 2995.43,5878.2 3162.81,5878.2 3162.81,5819.48 2995.43,5819.48 "/>
   <polygon class="fil0" points="3261.57,5535.77 3380.11,5535.77 3380.11,5878.2 3445.96,5878.2 3445.96,5535.77 3565.05,5535.77 3565.05,5477.6 3261.57,5477.6 "/>
   <polygon class="fil0" points="4008.99,5648.82 3807.59,5648.82 3807.59,5477.61 3741.74,5477.61 3741.74,5878.21 3807.59,5878.21 3807.59,5707.54 4008.99,5707.54 4008.99,5878.21 4074.83,5878.21 4074.83,5477.61 4008.99,5477.61 "/>
   <polygon class="fil0" points="4252.08,5535.77 4370.62,5535.77 4370.62,5878.2 4436.47,5878.2 4436.47,5535.77 4555.56,5535.77 4555.56,5477.6 4252.08,5477.6 "/>
   <polygon class="fil0" points="4797.54,5703.15 4958.89,5703.15 4958.89,5646.07 4797.54,5646.07 4797.54,5534.67 4969.31,5534.67 4969.31,5477.61 4797.54,5477.61 4786.57,5477.61 4732.24,5477.61 4732.24,5878.2 4786.57,5878.2 4797.54,5878.2 4974.25,5878.2 4974.25,5821.12 4797.54,5821.12 "/>
   <path class="fil0" d="M5425.33 5803.29c-21.95,15.91 -49.03,23.87 -81.21,23.87 -22.32,0 -41.98,-3.84 -59,-11.51 -17.01,-7.69 -31.19,-18.48 -42.52,-32.39 -11.35,-13.89 -19.86,-29.91 -25.52,-48.01 -5.67,-18.11 -8.51,-37.41 -8.51,-57.9 0,-21.58 2.84,-41.43 8.51,-59.54 5.66,-18.1 13.98,-33.92 24.96,-47.46 10.98,-13.54 24.79,-24.15 41.44,-31.84 16.65,-7.67 35.75,-11.52 57.34,-11.52 20.86,0 39.59,3.49 56.26,10.43 16.63,6.95 30.35,17.28 41.15,31 10.79,13.72 17.64,30.83 20.58,51.3l66.39 0c-2.93,-31.07 -12.16,-58.06 -27.7,-80.93 -15.55,-22.86 -36.49,-40.7 -62.84,-53.5 -26.34,-12.8 -57.63,-19.21 -93.84,-19.21 -34.76,0 -64.84,6.03 -90.28,18.1 -25.42,12.08 -46.09,27.99 -62,47.75 -15.91,19.76 -27.72,41.7 -35.39,65.85 -7.69,24.15 -11.54,48.48 -11.54,72.99l0 12.07c0,22.32 3.76,45.46 11.27,69.42 7.48,23.96 19.2,46.28 35.12,66.94 15.91,20.68 36.76,37.33 62.54,49.94 25.8,12.63 56.99,18.94 93.58,18.94 37.68,0 69.86,-6.86 96.57,-20.58 26.7,-13.72 47.75,-32.18 63.12,-55.43 15.36,-23.22 24.86,-48.92 28.54,-77.09l-66.96 0c-4.75,29.62 -18.12,52.4 -40.06,68.31z"/>
   <polygon class="fil0" points="5981.23,5477.6 5981.23,5648.81 5779.84,5648.81 5779.84,5477.6 5713.98,5477.6 5713.98,5878.2 5779.84,5878.2 5779.84,5707.54 5981.23,5707.54 5981.23,5878.2 6047.08,5878.2 6047.08,5477.6 "/>
  </g>
  <path class="fil2" d="M3506.03 9883.56c375.45,-207.13 744.76,-426.76 1107.17,-658.8 2280.78,-1460.35 4289.62,-3410.8 5852.98,-5803.99 11.57,-17.72 22.63,-35.81 33.11,-54.16 135.88,-237.71 167.82,-509.06 108.52,-758.4 -59.23,-249.01 -209.67,-476.03 -438.65,-625.63 -17.25,-11.27 -35.15,-22.22 -53.55,-32.73l-3156.52 -1803.03 371.19 0 2876.8 1643.13c21.33,12.18 42.37,25.06 62.91,38.47 270.07,176.45 447.46,443.98 517.22,737.29 69.66,292.91 31.91,612.01 -128.02,892.01l0 0.37c-12.18,21.3 -25.14,42.5 -38.86,63.51 -1577.81,2415.34 -3605.44,4383.94 -5907.71,5858.05 -273.31,174.98 -550.51,342.93 -831.27,503.91l-375.32 0z"/>
 </g>
</svg>
